<svg width="48" height="48" viewBox="0 0 24 24" fill="none" xmlns="http://www.w3.org/2000/svg">
  <path fill="#25D366" d="M12 0C5.373 0 0 4.85 0 10.83c0 2.681 1.195 5.153 3.203 6.985L2 24l6.387-3.327c1.025.293 2.123.448 3.273.448 6.627 0 12-4.85 12-10.83S18.627 0 12 0Z"></path>
  <path fill="#FFF" d="M17.23 14.39c-.292-.146-1.722-.85-1.988-.95-.265-.098-.459-.146-.653.147-.194.293-.748.95-.917 1.145-.17.195-.34.22-.632.073-.292-.146-1.233-.45-2.35-1.434-.87-.776-1.456-1.735-1.628-2.028-.17-.293-.018-.451.128-.597.13-.129.292-.34.438-.51.146-.17.194-.293.292-.487.098-.195.05-.366-.024-.512-.072-.146-.653-1.575-.896-2.15-.236-.566-.476-.49-.653-.5-.17-.01-.365-.012-.56-.012-.195 0-.512.073-.78.366-.267.293-1.023 1-1.023 2.437 0 1.438 1.048 2.826 1.193 3.02.146.195 2.063 3.162 5.012 4.433.701.303 1.247.484 1.672.618.702.224 1.34.192 1.846.117.563-.084 1.722-.703 1.966-1.382.243-.682.243-1.265.17-1.382-.072-.117-.267-.195-.56-.34Z"></path>
</svg>
